<?xml version="1.0" encoding="UTF-8" standalone="no"?>
<svg xmlns="http://www.w3.org/2000/svg" width="250" height="100" viewBox="0 0 250 100">
  <style>
    .cake-text { font-family: 'Playfair Display', serif; font-size: 36px; font-weight: bold; fill: #795548; }
    .dream-text { font-family: 'Montserrat', sans-serif; font-size: 24px; font-weight: 300; fill: #795548; }
    .cake-icon { fill: #F8BBD0; stroke: #795548; stroke-width: 2; }
    .cake-details { fill: #795548; }
  </style>
  
  <!-- Cake Icon -->
  <g transform="translate(20, 50)">
    <path class="cake-icon" d="M0,0 L60,0 L60,30 C60,35 55,40 50,40 L10,40 C5,40 0,35 0,30 L0,0 Z" />
    <path class="cake-icon" d="M5,-10 L55,-10 L55,0 L5,0 Z" />
    <path class="cake-icon" d="M20,-25 L40,-25 L40,-10 L20,-10 Z" />
    <circle class="cake-details" cx="15" cy="15" r="3" />
    <circle class="cake-details" cx="30" cy="25" r="3" />
    <circle class="cake-details" cx="45" cy="15" r="3" />
    <path class="cake-details" d="M10,5 C15,0 20,10 25,5 C30,0 35,10 40,5 C45,0 50,10 55,5" fill="none" stroke="#795548" stroke-width="1.5" />
  </g>
  
  <!-- Text -->
  <text x="100" y="50" class="cake-text">Cake</text>
  <text x="100" y="75" class="dream-text">Dream</text>
</svg>
